<svg width="16" height="13" viewBox="0 0 16 13" fill="none" xmlns="http://www.w3.org/2000/svg">
<path d="M11.5556 4.78571C11.5556 2.41786 8.96944 0.5 5.77778 0.5C2.58611 0.5 0 2.41786 0 4.78571C0 5.70446 0.391667 6.55089 1.05556 7.25C0.683333 8.05893 0.0694444 8.70179 0.0611111 8.70982C0 8.77143 -0.0166667 8.8625 0.0194444 8.94286C0.0555556 9.02321 0.133333 9.07143 0.222222 9.07143C1.23889 9.07143 2.08056 8.74196 2.68611 8.40179C3.58056 8.82232 4.63889 9.07143 5.77778 9.07143C8.96944 9.07143 11.5556 7.15357 11.5556 4.78571ZM14.9444 10.6786C15.6083 9.98214 16 9.13304 16 8.21429C16 6.42232 14.5139 4.8875 12.4083 4.24732C12.4333 4.42411 12.4444 4.60357 12.4444 4.78571C12.4444 7.62232 9.45278 9.92857 5.77778 9.92857C5.47778 9.92857 5.18611 9.90714 4.89722 9.87768C5.77222 11.4179 7.82778 12.5 10.2222 12.5C11.3611 12.5 12.4194 12.2536 13.3139 11.8304C13.9194 12.1705 14.7611 12.5 15.7778 12.5C15.8667 12.5 15.9472 12.4491 15.9806 12.3714C16.0167 12.2938 16 12.2027 15.9389 12.1384C15.9306 12.1304 15.3167 11.4902 14.9444 10.6786Z" fill="currentColor"/>
</svg>
