<svg width="16" height="15" viewBox="0 0 16 15" fill="none" xmlns="http://www.w3.org/2000/svg">
<path d="M13.3333 5.75H10.1586L7.23913 0.720391C7.2002 0.653428 7.14399 0.597779 7.07618 0.559077C7.00838 0.520375 6.93139 0.499995 6.85301 0.5L5.03356 0.5C4.73828 0.5 4.52522 0.778086 4.60634 1.05754L5.96829 5.75H3.11105L1.91105 4.175C1.82716 4.0648 1.69521 4 1.55549 4H0.444651C0.155483 4 -0.0567406 4.26742 0.0135375 4.54359L0.888819 7.5L0.0135375 10.4564C-0.0567406 10.7326 0.155483 11 0.444651 11H1.55549C1.69549 11 1.82716 10.9352 1.91105 10.825L3.11105 9.25H5.96829L4.60634 13.9422C4.52522 14.2216 4.73828 14.5 5.03356 14.5H6.85301C7.01246 14.5 7.15968 14.4158 7.23885 14.2796L10.1586 9.25H13.3333C14.3153 9.25 16 8.4666 16 7.5C16 6.5334 14.3153 5.75 13.3333 5.75Z" fill="currentColor"/>
</svg>
